<?xml version="1.0" standalone="no"?><!DOCTYPE svg PUBLIC "-//W3C//DTD SVG 1.1//EN" "http://www.w3.org/Graphics/SVG/1.1/DTD/svg11.dtd"><svg t="1646556729793" class="icon" viewBox="0 0 1025 1024" version="1.1" xmlns="http://www.w3.org/2000/svg" p-id="1575" width="200.1953125" height="200" xmlns:xlink="http://www.w3.org/1999/xlink"><defs><style type="text/css"></style></defs><path d="M756.685 66.086c-111.451 0-201.815 87.406-201.815 195.189 0 107.81 90.364 195.188 201.815 195.188 111.476 0 201.811-87.38 201.811-195.188 0.001-107.784-90.335-195.189-201.81-195.189z m0 345.823c-86.004 0-155.701-67.434-155.701-150.634 0-83.2 69.697-150.658 155.701-150.658 86.002 0 155.726 67.456 155.726 150.658-0.002 83.2-69.723 150.634-155.726 150.634z m64.322 384.594a23.822 23.822 0 0 0-4.813-0.49H417.736l-18.17-67.017 335.669-24.972c12.85-0.935 22.558-11.434 22.278-23.748l29.82-185.66a230.631 230.631 0 0 1-30.645 2.051 230.18 230.18 0 0 1-18.368-0.738l-26.183 163.02-325.015 24.136-85.406-315.014H550.17a236.088 236.088 0 0 1-17.523-46.67H290.83c-0.588 0-1.172 0.027-1.749 0.067l-28.967-106.84c-0.383-12.567-11.052-22.64-24.132-22.64H87.979c-13.323 0-24.123 10.446-24.123 23.335 0 12.89 10.803 23.335 24.123 23.335H216.74l151.115 557.358h-45.214c-1.539 0-3.042 0.15-4.497 0.426a88.918 88.918 0 0 0-8.675-0.426c-46.645 0-84.449 36.555-84.449 81.697 0 45.093 37.803 81.674 84.449 81.674 46.642 0 84.448-36.581 84.448-81.674 0-13.382-3.345-25.998-9.233-37.143h10.529c2.203 0.305 4.475 0.315 6.758 0h334.597c-5.892 11.145-9.234 23.761-9.234 37.143 0 45.093 37.804 81.674 84.475 81.674 46.62 0 84.449-36.581 84.449-81.674 0-42.136-32.956-76.776-75.252-81.21zM309.474 922.239c-25.449 0-46.083-19.921-46.083-44.53s20.634-44.582 46.083-44.582 46.057 19.975 46.057 44.581-20.608 44.53-46.057 44.53z m502.337 0c-25.447 0-46.059-19.921-46.059-44.53s20.612-44.582 46.06-44.582c25.424 0 46.059 19.975 46.059 44.581s-20.636 44.53-46.06 44.53z m47.436-682.21H778.67v-78.004c0-7.82-6.547-14.163-14.648-14.163h-14.648c-8.079 0-14.647 6.342-14.647 14.163v78.004h-80.551c-8.103 0-14.675 6.344-14.675 14.164v14.19c0 7.82 6.572 14.189 14.675 14.189h80.551v77.979c0 7.818 6.57 14.188 14.647 14.188h14.648c8.1 0 14.648-6.37 14.648-14.188v-77.98h80.577c8.073 0 14.62-6.368 14.62-14.189v-14.189c0.003-7.82-6.547-14.164-14.62-14.164z" fill="#f11b0f" p-id="1576"></path></svg>